<?xml version="1.0" encoding="UTF-8"?><svg xmlns="http://www.w3.org/2000/svg" xmlns:xlink="http://www.w3.org/1999/xlink" width="132.75" zoomAndPan="magnify" viewBox="0 0 132.75 191.249993" height="191.249993" preserveAspectRatio="xMidYMid meet" version="1.0"><defs><clipPath id="clip-0"><path d="M 0.136719 0 L 132.367188 0 L 132.367188 190.503906 L 0.136719 190.503906 Z M 0.136719 0 " clip-rule="nonzero"/></clipPath><clipPath id="clip-1"><path d="M 60 27.5 L 100 27.5 L 100 67 L 60 67 Z M 60 27.5 " clip-rule="nonzero"/></clipPath><clipPath id="clip-2"><path d="M 12.199219 85.855469 L 120.730469 85.855469 L 120.730469 111.753906 L 12.199219 111.753906 Z M 12.199219 85.855469 " clip-rule="nonzero"/></clipPath><clipPath id="clip-3"><path d="M 29.289062 131.386719 L 103.542969 131.386719 L 103.542969 163.707031 L 29.289062 163.707031 Z M 29.289062 131.386719 " clip-rule="nonzero"/></clipPath></defs><g clip-path="url(#clip-0)"><path fill="rgb(100%, 100%, 100%)" d="M 0.136719 0 L 132.613281 0 L 132.613281 190.863281 L 0.136719 190.863281 Z M 0.136719 0 " fill-opacity="1" fill-rule="nonzero"/><path fill="rgb(100%, 100%, 100%)" d="M 0.136719 0 L 132.613281 0 L 132.613281 190.863281 L 0.136719 190.863281 Z M 0.136719 0 " fill-opacity="1" fill-rule="nonzero"/></g><path fill="rgb(0%, 0%, 0%)" d="M 53.367188 85.199219 L 71.402344 71.597656 C 71.738281 71.34375 72.054688 71.066406 72.351562 70.769531 L 73.664062 69.453125 L 58.179688 53.953125 L 56.863281 55.269531 C 56.566406 55.566406 56.289062 55.882812 56.039062 56.21875 L 42.449219 74.273438 C 41.515625 75.515625 41.636719 77.257812 42.734375 78.359375 L 49.28125 84.914062 C 50.382812 86.011719 52.125 86.136719 53.367188 85.199219 " fill-opacity="1" fill-rule="nonzero"/><g clip-path="url(#clip-1)"><path fill="rgb(0%, 0%, 0%)" d="M 98.96875 44.128906 C 100.082031 43.015625 100.082031 41.210938 98.96875 40.097656 L 87.507812 28.625 C 86.398438 27.511719 84.59375 27.511719 83.480469 28.625 L 60.730469 51.398438 L 76.21875 66.898438 L 98.96875 44.128906 " fill-opacity="1" fill-rule="nonzero"/></g><g clip-path="url(#clip-2)"><path fill="rgb(0%, 0%, 0%)" d="M 120.070312 106.746094 L 106.96875 98.8125 C 92.160156 89.84375 75.285156 85.492188 58.410156 85.917969 L 55.539062 88.085938 C 54.363281 88.972656 52.960938 89.441406 51.488281 89.441406 C 50.785156 89.441406 50.097656 89.332031 49.445312 89.125 C 49.265625 89.398438 49.050781 89.648438 48.804688 89.867188 L 44.964844 93.25 C 43.894531 94.195312 42.515625 94.71875 41.085938 94.71875 C 41.039062 94.71875 40.992188 94.714844 40.941406 94.714844 L 31.667969 103.996094 C 30.613281 105.054688 29.207031 105.636719 27.710938 105.636719 C 26.21875 105.636719 24.8125 105.054688 23.757812 103.996094 C 22.699219 102.9375 22.117188 101.53125 22.117188 100.035156 C 22.117188 98.539062 22.699219 97.132812 23.757812 96.074219 L 27.578125 92.25 L 14.257812 97.539062 C 12.40625 98.273438 11.640625 100.480469 12.640625 102.203125 L 17.183594 110.03125 C 17.976562 111.398438 19.632812 111.996094 21.117188 111.457031 L 43.882812 103.125 C 60.171875 97.164062 77.957031 96.679688 94.546875 101.746094 L 118.972656 109.210938 C 120.5 109.675781 121.4375 107.574219 120.070312 106.746094 " fill-opacity="1" fill-rule="nonzero"/></g><path fill="rgb(0%, 0%, 0%)" d="M 26.308594 101.441406 C 27.085938 102.214844 28.339844 102.214844 29.117188 101.441406 L 39.828125 90.71875 C 40.664062 91.28125 41.796875 91.230469 42.582031 90.539062 L 46.417969 87.15625 L 40.496094 81.226562 L 37.117188 85.066406 C 36.398438 85.882812 36.371094 87.078125 37.003906 87.921875 L 26.308594 98.628906 C 25.535156 99.40625 25.535156 100.664062 26.308594 101.441406 " fill-opacity="1" fill-rule="nonzero"/><g clip-path="url(#clip-3)"><path fill="rgb(0%, 0%, 0%)" d="M 102.808594 137.347656 C 103.855469 136.054688 103.652344 134.160156 102.359375 133.113281 C 101.066406 132.066406 99.171875 132.269531 98.128906 133.5625 C 93.679688 139.078125 85.371094 146.039062 71.0625 147.878906 C 60.691406 149.214844 51.484375 147.132812 43.699219 141.695312 C 37.824219 137.589844 34.976562 132.996094 34.953125 132.960938 C 34.09375 131.535156 32.246094 131.078125 30.820312 131.9375 C 29.398438 132.796875 28.941406 134.648438 29.800781 136.070312 C 29.898438 136.234375 31.628906 139.070312 35.160156 142.453125 L 31.347656 146.765625 C 30.246094 148.011719 30.363281 149.914062 31.605469 151.015625 C 32.179688 151.523438 32.890625 151.773438 33.601562 151.773438 C 34.429688 151.773438 35.257812 151.429688 35.855469 150.757812 L 39.789062 146.304688 C 39.863281 146.355469 39.933594 146.40625 40.003906 146.457031 C 43.011719 148.589844 46.253906 150.304688 49.683594 151.578125 L 47.046875 157.785156 C 46.394531 159.316406 47.109375 161.085938 48.636719 161.738281 C 49.019531 161.898438 49.421875 161.976562 49.8125 161.976562 C 50.984375 161.976562 52.097656 161.289062 52.582031 160.144531 L 55.5 153.277344 C 58.617188 153.949219 61.847656 154.289062 65.175781 154.289062 C 66.871094 154.289062 68.589844 154.199219 70.328125 154.027344 L 71.234375 161.082031 C 71.429688 162.601562 72.722656 163.707031 74.214844 163.707031 C 74.34375 163.707031 74.472656 163.699219 74.601562 163.683594 C 76.25 163.472656 77.414062 161.960938 77.203125 160.3125 L 76.277344 153.105469 C 80.996094 152.117188 85.074219 150.609375 88.578125 148.828125 L 93.121094 154.707031 C 93.714844 155.476562 94.605469 155.878906 95.503906 155.878906 C 96.148438 155.878906 96.792969 155.671875 97.34375 155.25 C 98.65625 154.230469 98.898438 152.339844 97.882812 151.023438 L 93.789062 145.722656 C 97.691406 143.015625 100.644531 140.03125 102.808594 137.347656 " fill-opacity="1" fill-rule="nonzero"/></g></svg>