<?xml version="1.0" encoding="UTF-8"?><svg xmlns="http://www.w3.org/2000/svg" xmlns:xlink="http://www.w3.org/1999/xlink" width="132.75" zoomAndPan="magnify" viewBox="0 0 132.75 191.249993" height="191.249993" preserveAspectRatio="xMidYMid meet" version="1.0"><defs><clipPath id="clip-0"><path d="M 0.136719 0 L 132.367188 0 L 132.367188 190.503906 L 0.136719 190.503906 Z M 0.136719 0 " clip-rule="nonzero"/></clipPath><clipPath id="clip-1"><path d="M 3.53125 33 L 129.273438 33 L 129.273438 158 L 3.53125 158 Z M 3.53125 33 " clip-rule="nonzero"/></clipPath></defs><g clip-path="url(#clip-0)"><path fill="rgb(100%, 100%, 100%)" d="M 0.136719 0 L 132.613281 0 L 132.613281 190.863281 L 0.136719 190.863281 Z M 0.136719 0 " fill-opacity="1" fill-rule="nonzero"/><path fill="rgb(100%, 100%, 100%)" d="M 0.136719 0 L 132.613281 0 L 132.613281 190.863281 L 0.136719 190.863281 Z M 0.136719 0 " fill-opacity="1" fill-rule="nonzero"/></g><path fill="rgb(0%, 0%, 0%)" d="M 81.183594 99.621094 C 75.925781 99.621094 72.277344 96.097656 72.238281 96.0625 L 69.300781 99.011719 C 69.496094 99.207031 74.15625 103.785156 81.183594 103.785156 C 88.210938 103.785156 92.867188 99.207031 93.066406 99.011719 L 90.121094 96.066406 C 90.085938 96.101562 86.503906 99.621094 81.183594 99.621094 Z M 81.183594 99.621094 " fill-opacity="1" fill-rule="nonzero"/><path fill="rgb(0%, 0%, 0%)" d="M 56.8125 96.066406 C 56.777344 96.101562 53.195312 99.621094 47.875 99.621094 C 42.613281 99.621094 38.96875 96.097656 38.9375 96.066406 L 35.992188 99.011719 C 36.1875 99.207031 40.847656 103.785156 47.875 103.785156 C 54.898438 103.785156 59.558594 99.207031 59.753906 99.011719 Z M 56.8125 96.066406 " fill-opacity="1" fill-rule="nonzero"/><path fill="rgb(0%, 0%, 0%)" d="M 54.777344 122.628906 L 53.460938 126.578125 C 57.699219 127.992188 62.15625 128.699219 66.609375 128.699219 C 71.0625 128.699219 75.519531 127.992188 79.757812 126.578125 L 78.441406 122.628906 C 70.8125 125.171875 62.40625 125.171875 54.777344 122.628906 Z M 54.777344 122.628906 " fill-opacity="1" fill-rule="nonzero"/><g clip-path="url(#clip-1)"><path fill="rgb(0%, 0%, 0%)" d="M 7.628906 103.511719 C 7.621094 103.601562 7.617188 103.695312 7.625 103.789062 C 7.878906 108.300781 9.273438 112.707031 11.667969 116.535156 L 16.558594 124.359375 C 17.425781 125.75 18.785156 126.703125 20.386719 127.050781 C 20.8125 127.140625 21.242188 127.1875 21.667969 127.1875 C 21.734375 127.1875 21.800781 127.175781 21.871094 127.171875 L 23.632812 129.519531 C 25.257812 131.6875 27.765625 132.84375 30.3125 132.84375 C 31.863281 132.84375 33.429688 132.414062 34.8125 131.519531 L 38.074219 129.410156 C 39.195312 130.828125 40.382812 132.195312 41.625 133.519531 L 41.625 157.914062 L 45.789062 157.914062 L 45.789062 137.589844 C 45.917969 137.707031 46.039062 137.832031 46.171875 137.945312 C 48.539062 140.003906 50.804688 141.53125 53.101562 142.601562 C 57.15625 144.484375 61.421875 145.410156 65.636719 145.410156 C 72.347656 145.410156 78.925781 143.066406 84.292969 138.523438 C 84.65625 138.21875 84.988281 137.882812 85.34375 137.570312 L 85.34375 157.914062 L 89.507812 157.914062 L 89.507812 133.539062 C 90.863281 132.101562 92.171875 130.621094 93.386719 129.074219 L 95.757812 130.851562 C 97.214844 131.941406 98.945312 132.515625 100.734375 132.515625 C 101.128906 132.515625 101.53125 132.488281 101.929688 132.433594 C 104.132812 132.117188 106.082031 130.964844 107.414062 129.183594 L 108.925781 127.171875 C 108.992188 127.175781 109.058594 127.1875 109.128906 127.1875 C 109.554688 127.1875 109.984375 127.140625 110.410156 127.050781 C 112.011719 126.703125 113.371094 125.75 114.238281 124.363281 L 119.132812 116.535156 C 121.527344 112.703125 122.921875 108.296875 123.175781 103.652344 L 122.824219 72.828125 L 128.992188 50.207031 C 129.273438 49.1875 128.738281 48.117188 127.757812 47.726562 L 106.941406 39.398438 C 106.058594 39.046875 105.0625 39.328125 104.5 40.082031 L 99.84375 46.285156 C 92.539062 37.507812 81.402344 33.007812 66.609375 33.007812 C 52.097656 33.007812 40.980469 37.34375 33.421875 45.792969 L 31.035156 40.476562 C 30.589844 39.484375 29.460938 39.003906 28.433594 39.367188 L 5.1875 47.695312 C 4.167969 48.066406 3.597656 49.15625 3.882812 50.203125 L 10.035156 72.753906 Z M 81.609375 135.34375 C 74.121094 141.679688 63.871094 143.019531 54.863281 138.820312 C 52.925781 137.917969 50.976562 136.605469 48.910156 134.804688 C 40.507812 127.484375 34.335938 117.984375 31.054688 107.324219 L 30.578125 105.792969 C 30.03125 104.023438 29.59375 102.601562 29.246094 101.265625 C 29.847656 93.671875 32.925781 78.46875 47.632812 72.328125 C 52.535156 70.28125 58.195312 67.839844 63.929688 65.332031 C 68.832031 66.367188 99.46875 73.976562 101.746094 102.472656 C 101.355469 103.933594 100.863281 105.503906 100.25 107.421875 C 96.777344 118.3125 90.332031 127.964844 81.609375 135.34375 Z M 106.875 43.855469 L 124.484375 50.898438 L 118.726562 72.011719 C 118.675781 72.195312 118.652344 72.390625 118.65625 72.582031 L 119.011719 103.558594 C 118.800781 107.367188 117.621094 111.089844 115.597656 114.324219 L 110.703125 122.152344 C 110.4375 122.582031 110.019531 122.871094 109.53125 122.976562 C 109.039062 123.085938 108.539062 122.988281 108.121094 122.710938 C 107.347656 122.199219 107.078125 121.183594 107.492188 120.355469 L 110.390625 114.558594 C 111.683594 111.972656 112.546875 109.207031 112.957031 106.347656 L 114.46875 95.753906 L 110.351562 95.164062 L 108.835938 105.757812 C 108.492188 108.179688 107.761719 110.511719 106.667969 112.699219 L 103.769531 118.492188 C 102.582031 120.871094 103.117188 123.707031 104.972656 125.5 L 104.082031 126.6875 C 102.707031 128.523438 100.089844 128.894531 98.253906 127.519531 L 95.851562 125.714844 C 99.433594 120.503906 102.273438 114.785156 104.21875 108.691406 C 104.308594 108.40625 104.390625 108.148438 104.476562 107.875 C 105.171875 107.699219 105.753906 107.183594 105.972656 106.457031 C 106.410156 104.976562 116.179688 71.125 102.457031 49.742188 Z M 97.742188 50.230469 C 107.015625 62.738281 106.191406 81.664062 104.371094 93.746094 C 98.632812 74.292969 79.667969 65.828125 69.9375 62.691406 C 82.210938 57.273438 93.738281 52.050781 97.742188 50.230469 Z M 34.992188 50.308594 C 41.699219 41.589844 52.339844 37.171875 66.609375 37.171875 C 78.917969 37.171875 88.410156 40.457031 94.910156 46.945312 C 86.921875 50.570312 62.28125 61.699219 46.03125 68.484375 C 34.339844 73.371094 29.105469 83.171875 26.777344 91.535156 C 25.585938 79.46875 25.925781 62.082031 34.992188 50.308594 Z M 8.40625 50.964844 L 28.027344 43.9375 L 30.496094 49.433594 C 15.863281 70.78125 24.652344 104.921875 25.042969 106.398438 C 25.273438 107.265625 26.027344 107.84375 26.882812 107.917969 L 27.078125 108.546875 C 29.011719 114.828125 31.910156 120.707031 35.597656 126.054688 L 32.554688 128.019531 C 30.726562 129.199219 28.269531 128.761719 26.964844 127.019531 L 25.820312 125.496094 C 27.675781 123.703125 28.210938 120.867188 27.023438 118.492188 L 24.125 112.695312 C 23.03125 110.511719 22.304688 108.175781 21.957031 105.757812 L 20.441406 95.164062 L 16.324219 95.753906 L 17.835938 106.347656 C 18.246094 109.207031 19.109375 111.972656 20.402344 114.558594 L 23.300781 120.355469 C 23.714844 121.183594 23.445312 122.199219 22.671875 122.710938 C 22.257812 122.992188 21.753906 123.085938 21.261719 122.976562 C 20.773438 122.871094 20.355469 122.582031 20.089844 122.152344 L 15.195312 114.328125 C 13.199219 111.128906 12.023438 107.457031 11.789062 103.695312 L 14.214844 72.71875 C 14.234375 72.480469 14.210938 72.242188 14.148438 72.011719 Z M 8.40625 50.964844 " fill-opacity="1" fill-rule="nonzero"/></g></svg>