<?xml version="1.0" encoding="UTF-8"?><svg xmlns="http://www.w3.org/2000/svg" xmlns:xlink="http://www.w3.org/1999/xlink" width="132.75" zoomAndPan="magnify" viewBox="0 0 132.75 191.249993" height="191.249993" preserveAspectRatio="xMidYMid meet" version="1.0"><defs><clipPath id="clip-0"><path d="M 0.136719 0 L 132.367188 0 L 132.367188 190.503906 L 0.136719 190.503906 Z M 0.136719 0 " clip-rule="nonzero"/></clipPath><clipPath id="clip-1"><path d="M 3.589844 32.648438 L 129.335938 32.648438 L 129.335938 158.390625 L 3.589844 158.390625 Z M 3.589844 32.648438 " clip-rule="nonzero"/></clipPath></defs><g clip-path="url(#clip-0)"><path fill="rgb(100%, 100%, 100%)" d="M 0.136719 0 L 132.613281 0 L 132.613281 783.65625 L 0.136719 783.65625 Z M 0.136719 0 " fill-opacity="1" fill-rule="nonzero"/><path fill="rgb(100%, 100%, 100%)" d="M 0.136719 0 L 132.613281 0 L 132.613281 190.863281 L 0.136719 190.863281 Z M 0.136719 0 " fill-opacity="1" fill-rule="nonzero"/><path fill="rgb(100%, 100%, 100%)" d="M 0.136719 0 L 132.613281 0 L 132.613281 190.863281 L 0.136719 190.863281 Z M 0.136719 0 " fill-opacity="1" fill-rule="nonzero"/></g><g clip-path="url(#clip-1)"><path fill="rgb(0%, 0%, 0%)" d="M 118.855469 32.644531 L 35.027344 32.644531 C 32.246094 32.644531 29.578125 33.746094 27.613281 35.710938 C 25.648438 37.679688 24.546875 40.34375 24.546875 43.125 L 24.546875 64.082031 C 24.550781 67.554688 27.363281 70.367188 30.835938 70.367188 C 34.300781 70.351562 37.105469 67.546875 37.121094 64.082031 C 37.121094 63.519531 37.355469 62.976562 37.765625 62.589844 C 38.160156 62.203125 38.695312 61.992188 39.246094 61.996094 C 39.800781 62.003906 40.328125 62.234375 40.710938 62.628906 C 41.101562 63.011719 41.320312 63.535156 41.3125 64.082031 L 41.3125 76.65625 C 41.320312 80.125 44.128906 82.941406 47.601562 82.945312 C 51.066406 82.929688 53.871094 80.121094 53.886719 76.65625 L 53.886719 64.082031 C 53.890625 62.925781 54.828125 61.988281 55.984375 61.988281 C 56.550781 61.984375 57.089844 62.21875 57.480469 62.628906 C 57.867188 63.011719 58.085938 63.535156 58.078125 64.082031 L 58.078125 91.347656 C 57.378906 91.339844 56.6875 91.328125 55.984375 91.328125 C 29.949219 91.328125 3.589844 96.367188 3.589844 106 C 3.589844 134.933594 27.046875 158.390625 55.984375 158.390625 C 84.917969 158.390625 108.378906 134.933594 108.378906 106 C 108.378906 97.667969 89.25 93.277344 70.652344 91.867188 L 70.652344 56.222656 C 70.660156 55.347656 70.71875 54.472656 70.820312 53.601562 L 118.855469 53.601562 C 124.644531 53.601562 129.335938 48.910156 129.335938 43.125 C 129.335938 37.335938 124.644531 32.644531 118.855469 32.644531 Z M 55.984375 154.199219 C 31.859375 154.164062 11.460938 136.324219 8.222656 112.414062 C 16.90625 117.851562 36.53125 120.667969 55.984375 120.667969 C 59.253906 120.667969 62.230469 120.597656 65.070312 120.457031 C 79.621094 119.808594 95.941406 117.335938 103.738281 112.46875 C 100.476562 136.351562 80.089844 154.164062 55.984375 154.199219 Z M 104.1875 106 C 104.1875 109.476562 90.1875 115.140625 64.871094 116.269531 C 62.089844 116.410156 59.183594 116.476562 55.984375 116.476562 C 26.558594 116.476562 7.78125 110.269531 7.78125 106 C 7.78125 101.722656 26.558594 95.519531 55.984375 95.519531 C 56.683594 95.519531 57.382812 95.523438 58.078125 95.53125 L 58.078125 99.710938 C 58.082031 103.179688 60.894531 105.992188 64.367188 106 C 67.832031 105.980469 70.636719 103.175781 70.652344 99.710938 L 70.652344 96.074219 C 92.550781 97.765625 104.1875 102.84375 104.1875 106 Z M 70.167969 42.851562 C 67.679688 46.863281 66.390625 51.503906 66.464844 56.222656 L 66.464844 99.710938 C 66.464844 100.277344 66.230469 100.816406 65.820312 101.203125 C 65.4375 101.59375 64.914062 101.8125 64.367188 101.804688 C 63.210938 101.804688 62.273438 100.867188 62.269531 99.710938 L 62.269531 64.082031 C 62.253906 60.617188 59.449219 57.8125 55.984375 57.796875 C 52.511719 57.800781 49.699219 60.609375 49.695312 64.082031 L 49.695312 76.65625 C 49.699219 77.222656 49.464844 77.761719 49.054688 78.152344 C 48.671875 78.539062 48.148438 78.757812 47.601562 78.753906 C 46.445312 78.753906 45.507812 77.8125 45.503906 76.65625 L 45.503906 64.082031 C 45.519531 62.421875 44.859375 60.828125 43.675781 59.664062 C 41.203125 57.28125 37.292969 57.261719 34.800781 59.625 C 33.597656 60.792969 32.921875 62.40625 32.929688 64.082031 C 32.933594 64.648438 32.699219 65.1875 32.289062 65.574219 C 31.90625 65.964844 31.378906 66.183594 30.835938 66.179688 C 29.679688 66.175781 28.738281 65.238281 28.738281 64.082031 L 28.738281 43.125 C 28.738281 41.457031 29.398438 39.855469 30.578125 38.675781 C 31.757812 37.496094 33.359375 36.832031 35.027344 36.835938 L 74.3125 36.835938 C 73.675781 38.308594 72.789062 39.65625 71.6875 40.828125 C 71.121094 41.453125 70.609375 42.132812 70.167969 42.851562 Z M 118.855469 49.410156 L 71.734375 49.410156 C 72.207031 47.886719 72.875 46.429688 73.722656 45.074219 C 74.03125 44.5625 74.390625 44.082031 74.796875 43.644531 C 76.632812 41.722656 77.976562 39.390625 78.710938 36.839844 L 118.855469 36.839844 C 122.328125 36.839844 125.144531 39.652344 125.144531 43.125 C 125.144531 46.597656 122.328125 49.410156 118.855469 49.410156 Z M 118.855469 49.410156 " fill-opacity="1" fill-rule="nonzero"/></g></svg>