<?xml version="1.0" encoding="UTF-8"?><svg xmlns="http://www.w3.org/2000/svg" xmlns:xlink="http://www.w3.org/1999/xlink" width="132.75" zoomAndPan="magnify" viewBox="0 0 132.75 191.249993" height="191.249993" preserveAspectRatio="xMidYMid meet" version="1.0"><defs><clipPath id="clip-0"><path d="M 0.136719 0 L 132.367188 0 L 132.367188 190.503906 L 0.136719 190.503906 Z M 0.136719 0 " clip-rule="nonzero"/></clipPath><clipPath id="clip-1"><path d="M 2.839844 68 L 130 68 L 130 158 L 2.839844 158 Z M 2.839844 68 " clip-rule="nonzero"/></clipPath><clipPath id="clip-2"><path d="M 91 33.007812 L 130 33.007812 L 130 82 L 91 82 Z M 91 33.007812 " clip-rule="nonzero"/></clipPath></defs><g clip-path="url(#clip-0)"><path fill="rgb(100%, 100%, 100%)" d="M 0.136719 0 L 132.613281 0 L 132.613281 190.863281 L 0.136719 190.863281 Z M 0.136719 0 " fill-opacity="1" fill-rule="nonzero"/><path fill="rgb(100%, 100%, 100%)" d="M 0.136719 0 L 132.613281 0 L 132.613281 190.863281 L 0.136719 190.863281 Z M 0.136719 0 " fill-opacity="1" fill-rule="nonzero"/></g><g clip-path="url(#clip-1)"><path fill="rgb(0%, 0%, 0%)" d="M 44.886719 154.957031 C 52.609375 156.441406 61.835938 157.4375 71.289062 157.4375 C 83.210938 157.4375 95.503906 155.851562 105.609375 151.632812 C 120.085938 145.597656 127.992188 135.269531 129.117188 120.929688 C 130.179688 107.40625 122.671875 95.734375 110.441406 91.894531 C 105.203125 90.246094 99.722656 90.484375 94.28125 91.613281 L 96.148438 89.96875 C 96.734375 89.453125 96.988281 88.660156 96.808594 87.898438 C 96.636719 87.140625 96.054688 86.539062 95.304688 86.335938 C 91.582031 85.328125 88.722656 82.730469 85.695312 79.976562 C 84.375 78.773438 83.007812 77.53125 81.550781 76.414062 C 76.710938 72.703125 70.671875 70.398438 62.535156 69.15625 C 54.707031 67.960938 48.105469 68.082031 42.355469 69.519531 C 32.613281 71.957031 24.917969 78.839844 21.769531 87.925781 L 25.769531 89.3125 C 28.449219 81.578125 35.035156 75.714844 43.382812 73.625 C 48.578125 72.328125 54.632812 72.230469 61.894531 73.34375 C 69.296875 74.472656 74.722656 76.515625 78.972656 79.773438 C 80.289062 80.78125 81.53125 81.910156 82.847656 83.105469 C 85.253906 85.296875 87.726562 87.546875 90.75 89.085938 L 84.804688 94.324219 C 82.355469 95.179688 79.945312 96.097656 77.605469 96.992188 C 74.679688 98.113281 71.914062 99.171875 69.285156 100.019531 C 59.996094 103.003906 50.25 103.769531 41.097656 102.234375 C 38.792969 101.847656 36.472656 101.15625 34.023438 100.421875 C 33.066406 100.136719 32.105469 99.851562 31.136719 99.582031 C 29.953125 98.972656 27.023438 97.140625 25.5625 94.804688 L 21.972656 97.050781 C 22.207031 97.425781 22.476562 97.769531 22.75 98.113281 C 19.953125 98.046875 17.117188 98.527344 14.238281 99.976562 C 7.3125 103.464844 2.839844 110.71875 2.839844 118.460938 C 2.839844 146.90625 34.484375 152.96875 44.886719 154.957031 Z M 16.144531 103.757812 C 18.15625 102.746094 20.203125 102.351562 22.285156 102.351562 C 24.867188 102.351562 27.507812 102.957031 30.21875 103.722656 C 29.96875 105.339844 29.273438 107.863281 27.300781 108.851562 L 29.195312 112.640625 C 32.566406 110.953125 33.832031 107.402344 34.308594 104.921875 C 35.078125 105.148438 35.847656 105.371094 36.625 105.574219 C 36.410156 107.386719 35.667969 110.917969 33.101562 113.480469 L 36.097656 116.476562 C 39.355469 113.21875 40.425781 108.957031 40.777344 106.460938 C 42.054688 106.667969 43.34375 106.828125 44.640625 106.953125 C 44.828125 109.488281 44.75 114.535156 41.664062 117.621094 L 44.660156 120.617188 C 48.71875 116.558594 49.082031 110.589844 48.902344 107.195312 C 49.902344 107.222656 50.898438 107.238281 51.898438 107.214844 C 52.640625 109.585938 53.652344 114.816406 49.960938 118.933594 L 53.113281 121.761719 C 57.730469 116.613281 57.128906 110.46875 56.226562 106.960938 C 56.953125 106.898438 57.683594 106.816406 58.414062 106.726562 C 58.664062 110.84375 59.417969 119.023438 61.527344 122.472656 L 65.140625 120.265625 C 63.722656 117.949219 62.898438 110.976562 62.613281 106.070312 C 63.148438 105.96875 63.679688 105.847656 64.210938 105.734375 C 64.398438 109.476562 65.5625 116.058594 71.050781 120.730469 L 73.796875 117.511719 C 69.082031 113.496094 68.457031 107.386719 68.421875 104.679688 C 69.144531 104.472656 69.867188 104.28125 70.578125 104.054688 C 70.582031 104.054688 70.582031 104.050781 70.585938 104.050781 C 71.226562 107.925781 73.382812 114.746094 80.667969 117.769531 L 82.292969 113.859375 C 76.382812 111.40625 74.984375 105.390625 74.648438 102.636719 C 75.527344 102.316406 76.445312 101.964844 77.347656 101.621094 C 78.226562 105.394531 81.046875 110.511719 87.847656 112.761719 L 89.179688 108.742188 C 83.175781 106.757812 81.722656 102.191406 81.371094 100.09375 C 90.511719 96.625 100.5625 93.234375 109.175781 95.9375 C 119.484375 99.175781 125.804688 109.085938 124.902344 120.601562 C 123.910156 133.230469 116.871094 142.359375 103.984375 147.730469 C 86.726562 154.925781 62.554688 154.039062 45.683594 150.804688 C 19.339844 145.753906 7.074219 135.480469 7.074219 118.460938 C 7.074219 112.304688 10.632812 106.53125 16.144531 103.757812 Z M 16.144531 103.757812 " fill-opacity="1" fill-rule="nonzero"/></g><g clip-path="url(#clip-2)"><path fill="rgb(0%, 0%, 0%)" d="M 126.257812 39.394531 L 107.082031 58.566406 L 121.09375 35.644531 L 117.476562 33.4375 L 99.851562 62.273438 C 96.539062 61.773438 93.855469 62.046875 93.644531 62.074219 C 92.523438 62.199219 91.703125 63.171875 91.761719 64.292969 C 91.828125 65.414062 92.753906 66.292969 93.878906 66.292969 C 95.042969 66.292969 95.988281 66.8125 96.710938 67.414062 L 94.1875 71.542969 C 93.628906 72.457031 93.84375 73.644531 94.683594 74.308594 C 95.074219 74.609375 95.535156 74.761719 95.996094 74.761719 C 96.539062 74.761719 97.082031 74.550781 97.496094 74.140625 L 98.984375 72.652344 C 99.125 74.523438 99.039062 77.148438 98.175781 80.597656 L 102.285156 81.625 C 103.882812 75.230469 103.246094 71.050781 102.660156 68.972656 L 103.804688 67.832031 C 104.769531 68.300781 105.667969 68.878906 106.414062 69.636719 C 108.441406 71.6875 109.210938 74.75 108.714844 78.734375 L 112.914062 79.257812 C 113.582031 73.921875 112.410156 69.683594 109.429688 66.664062 C 108.664062 65.886719 107.816406 65.25 106.929688 64.703125 L 129.25 42.390625 Z M 126.257812 39.394531 " fill-opacity="1" fill-rule="nonzero"/></g><path fill="rgb(0%, 0%, 0%)" d="M 87.761719 53.03125 L 79.855469 48.289062 C 70.902344 42.921875 60.070312 41.664062 50.121094 44.84375 L 15.792969 55.828125 C 12.566406 56.859375 10.683594 60.242188 11.503906 63.53125 C 11.9375 65.261719 13.085938 66.753906 14.652344 67.613281 C 15.613281 68.140625 16.683594 68.410156 17.761719 68.410156 C 18.445312 68.410156 19.132812 68.300781 19.792969 68.082031 L 57.5625 55.492188 C 62.84375 53.730469 68.523438 53.378906 73.988281 54.46875 L 86.257812 56.921875 C 87.269531 57.128906 88.277344 56.570312 88.648438 55.609375 C 89.019531 54.648438 88.644531 53.5625 87.761719 53.03125 Z M 56.21875 51.472656 L 18.453125 64.0625 C 17.867188 64.261719 17.238281 64.203125 16.691406 63.902344 C 16.144531 63.605469 15.761719 63.109375 15.609375 62.503906 C 15.328125 61.375 15.976562 60.214844 17.082031 59.859375 L 51.414062 48.875 C 54.601562 47.855469 57.898438 47.351562 61.179688 47.351562 C 65.765625 47.351562 70.320312 48.335938 74.53125 50.261719 C 68.433594 49.09375 62.109375 49.511719 56.21875 51.472656 Z M 56.21875 51.472656 " fill-opacity="1" fill-rule="nonzero"/></svg>