<?xml version="1.0" standalone="no"?>
<!DOCTYPE svg PUBLIC "-//W3C//DTD SVG 20010904//EN"
 "http://www.w3.org/TR/2001/REC-SVG-20010904/DTD/svg10.dtd">
<svg version="1.0" xmlns="http://www.w3.org/2000/svg"
 width="300.000000pt" height="300.000000pt" viewBox="0 0 300.000000 300.000000"
 preserveAspectRatio="xMidYMid meet">
<metadata>
Created by potrace 1.14, written by Peter Selinger 2001-2017
</metadata>
<g transform="translate(0.000000,300.000000) scale(0.100000,-0.100000)"
fill="#000000" stroke="none">
<path d="M1484 2778 c-5 -18 -50 -97 -99 -175 l-88 -143 -61 58 c-80 77 -180
138 -318 195 l-37 16 5 -62 c2 -34 9 -154 14 -267 6 -149 14 -223 28 -272 l19
-68 -62 58 c-76 71 -197 134 -315 162 -115 27 -112 28 -90 -23 10 -23 31 -85
45 -137 43 -153 85 -281 107 -325 57 -112 127 -192 220 -250 27 -17 48 -32 48
-35 0 -3 -36 -4 -80 -2 -186 8 -377 -78 -556 -250 l-86 -83 78 -16 c44 -9 131
-32 194 -53 147 -46 239 -66 317 -66 l63 0 -44 -64 c-68 -99 -106 -217 -106
-329 l0 -49 48 6 c78 12 212 56 287 94 44 24 96 63 140 107 l70 70 2 -75 c1
-99 18 -141 114 -287 83 -126 149 -256 149 -292 0 -12 5 -21 10 -21 6 0 10 9
10 21 0 36 66 166 149 292 96 146 113 188 114 287 l2 75 70 -70 c44 -44 96
-83 140 -107 75 -38 209 -82 288 -94 l47 -6 0 49 c0 112 -38 230 -106 329
l-44 64 60 0 c80 0 176 21 346 74 76 24 160 47 187 50 26 4 47 11 47 16 0 19
-184 179 -256 222 -126 74 -218 101 -346 102 -60 1 -108 3 -108 6 1 3 31 25
68 50 147 99 211 216 307 560 14 52 35 114 45 137 22 51 25 50 -90 23 -121
-29 -237 -88 -313 -160 l-64 -60 19 68 c18 63 31 220 41 498 l4 102 -36 -15
c-136 -57 -238 -119 -317 -195 l-61 -58 -88 143 c-49 78 -94 157 -99 175 -6
17 -13 32 -16 32 -3 0 -10 -15 -16 -32z m26 -161 c0 -7 22 -40 48 -73 117
-146 151 -222 154 -351 l2 -78 -57 -79 c-64 -88 -118 -181 -138 -238 -7 -21
-16 -38 -19 -38 -3 0 -14 22 -24 49 -20 56 -89 171 -149 249 -40 53 -41 55
-39 130 2 121 30 192 123 313 43 57 79 110 79 117 0 16 20 16 20 -1z m-455
-38 c24 -23 61 -66 82 -97 44 -66 98 -205 108 -277 l8 -50 -26 24 c-14 13 -36
49 -48 80 -36 90 -88 190 -138 266 -25 39 -50 76 -54 83 -18 28 26 10 68 -29z
m958 29 c-4 -7 -29 -44 -54 -83 -50 -76 -102 -176 -138 -266 -12 -31 -34 -67
-48 -80 l-26 -24 8 50 c25 171 171 406 258 414 4 1 4 -5 0 -11z m-933 -178
c35 -61 80 -155 80 -168 0 -3 -15 9 -34 27 l-35 34 -3 -44 -3 -44 -27 51 c-32
60 -108 277 -108 307 0 26 75 -68 130 -163z m930 26 c-23 -65 -53 -142 -68
-170 l-27 -51 -3 44 -3 44 -35 -34 c-19 -18 -34 -30 -34 -26 0 29 109 222 169
298 50 65 50 39 1 -105z m-881 109 c33 -17 79 -72 111 -132 19 -36 20 -50 13
-95 l-9 -53 -13 40 c-21 63 -79 176 -112 218 -33 41 -32 44 10 22z m752 -22
c-33 -42 -91 -155 -112 -218 l-13 -40 -9 52 c-7 44 -5 58 14 95 31 61 69 108
104 130 45 27 49 22 16 -19z m-837 -259 c36 -68 37 -73 25 -118 -6 -25 -14
-46 -18 -46 -11 0 -59 119 -81 200 -11 41 -20 97 -19 125 l0 50 28 -70 c15
-39 44 -102 65 -141z m236 140 c0 -27 -15 -14 -32 29 l-18 42 25 -28 c14 -15
25 -35 25 -43z m472 26 c-17 -40 -32 -52 -32 -26 0 12 37 66 45 66 2 0 -4 -18
-13 -40z m284 -114 c-17 -72 -74 -216 -86 -216 -4 0 -13 20 -19 45 -11 45 -10
49 38 146 28 55 56 119 63 142 l13 42 3 -46 c2 -26 -4 -76 -12 -113z m-1022
-191 c26 -43 27 -51 17 -86 -6 -21 -16 -41 -21 -44 -20 -13 -71 177 -69 265 0
33 2 31 23 -26 12 -34 35 -83 50 -109z m1037 45 c-13 -80 -48 -183 -61 -175
-5 3 -14 21 -20 40 -11 33 -9 42 34 128 25 51 47 101 47 112 1 12 4 9 6 -8 3
-15 0 -59 -6 -97z m-1395 9 c38 -12 85 -29 104 -39 62 -32 154 -107 192 -157
l36 -48 -25 -75 c-33 -95 -42 -259 -20 -332 8 -27 13 -48 11 -48 -13 0 -96 60
-141 102 -107 102 -163 215 -217 440 -19 79 -38 151 -41 161 -10 23 15 22 101
-4z m1789 4 c-3 -10 -22 -82 -41 -161 -40 -166 -69 -242 -125 -329 -45 -68
-133 -156 -194 -192 l-37 -22 8 38 c5 21 9 90 8 153 0 97 -4 127 -26 190 l-26
75 36 48 c37 48 128 124 187 155 42 22 165 61 194 62 18 0 22 -4 16 -17z
m-1220 -255 c38 -112 79 -227 92 -257 23 -54 23 -55 6 -98 -10 -24 -20 -43
-23 -43 -22 0 -85 161 -110 278 -24 113 -50 322 -40 322 4 0 37 -91 75 -202z
m618 90 c-18 -155 -48 -294 -82 -375 -29 -71 -52 -113 -61 -113 -3 0 -13 19
-24 41 -18 39 -18 40 4 92 13 29 51 137 86 240 58 172 80 227 88 227 1 0 -3
-51 -11 -112z m-549 -57 c46 -90 106 -254 106 -289 0 -12 -10 -28 -22 -37 -23
-15 -23 -15 -45 34 -12 28 -47 128 -76 223 -30 95 -58 182 -62 193 -6 16 -1
14 23 -9 18 -16 52 -68 76 -115z m508 112 c-5 -10 -35 -101 -66 -202 -32 -101
-65 -199 -74 -218 -17 -32 -18 -32 -40 -17 -28 19 -28 34 4 130 35 110 104
252 144 297 33 38 49 43 32 10z m-601 -368 c17 -49 44 -113 60 -142 26 -45 30
-64 32 -133 2 -91 3 -91 -59 14 -83 141 -100 215 -108 471 l-6 170 26 -145
c14 -80 39 -185 55 -235z m675 203 c-11 -253 -27 -323 -106 -458 -66 -111 -65
-111 -64 -21 1 67 6 88 28 126 57 97 102 252 126 433 7 50 15 92 18 92 3 0 2
-78 -2 -172z m-750 -222 c17 -102 51 -182 120 -285 27 -40 52 -78 56 -84 15
-25 55 -117 51 -117 -14 0 -120 102 -162 154 -102 129 -125 208 -124 431 1
107 5 170 14 190 12 28 13 22 21 -85 5 -63 15 -155 24 -204z m806 197 c15
-167 -6 -332 -54 -427 -30 -60 -109 -156 -172 -210 -30 -25 -56 -46 -59 -46
-4 0 36 92 51 117 4 6 29 44 56 84 101 150 128 240 141 477 9 148 24 150 37 5z
m-557 27 c46 -59 98 -160 111 -212 6 -29 6 -29 -52 -32 -12 -1 -22 18 -36 74
-10 41 -34 112 -52 157 -18 45 -29 80 -25 77 5 -3 29 -32 54 -64z m279 -12
c-18 -46 -42 -117 -52 -158 -14 -56 -24 -75 -36 -74 -58 3 -58 3 -52 32 13 52
74 167 120 225 26 31 48 57 50 57 2 0 -12 -37 -30 -82z m-604 -231 c17 -165
63 -260 184 -382 59 -59 160 -135 179 -135 5 0 -3 14 -17 30 -35 42 -56 119
-56 204 1 133 49 190 160 190 112 -1 159 -58 160 -190 0 -85 -21 -162 -56
-204 -14 -16 -22 -30 -17 -30 19 0 120 76 179 135 145 145 184 251 197 535 l2
55 24 -85 c42 -150 27 -284 -46 -410 -40 -68 -130 -151 -204 -187 -71 -34
-145 -57 -158 -49 -5 3 0 23 10 43 48 95 0 203 -91 203 -91 0 -140 -110 -90
-202 24 -45 15 -53 -42 -37 -123 33 -253 129 -311 229 -73 126 -88 260 -46
410 l24 85 2 -55 c2 -30 7 -99 13 -153z m-94 -211 c17 -13 16 -14 -21 -10 -22
3 -69 9 -105 13 l-65 8 86 2 c60 1 91 -3 105 -13z m1214 3 c-36 -4 -83 -10
-105 -13 -37 -4 -38 -3 -21 10 14 10 45 14 105 13 l86 -2 -65 -8z m-1189 -40
c5 -8 9 -16 9 -20 0 -3 -66 -5 -147 -6 -138 0 -240 -13 -343 -42 -33 -10 -34
-9 -15 5 37 30 123 64 181 74 86 13 304 6 315 -11z m1344 11 c68 -10 150 -42
190 -74 19 -14 18 -15 -15 -5 -103 29 -205 42 -342 42 -82 1 -148 3 -148 6 1
18 19 30 50 34 69 8 196 6 265 -3z m-1309 -74 c8 -11 14 -23 14 -28 0 -4 -35
-8 -77 -8 -173 0 -430 -33 -553 -70 l-63 -19 32 33 c42 43 143 75 351 110 14
2 83 3 153 3 115 -2 130 -4 143 -21z m1369 1 c142 -32 213 -59 246 -93 l32
-33 -63 19 c-123 37 -380 70 -552 70 -43 0 -78 4 -78 8 0 15 25 40 45 46 36 9
308 -3 370 -17z m-1324 -63 c10 -13 10 -17 -2 -25 -41 -26 -158 -44 -354 -54
-71 -3 -178 -13 -236 -21 -69 -10 -114 -12 -130 -5 l-24 9 30 12 c89 35 243
65 435 85 184 19 265 18 281 -1z m1115 6 c203 -20 389 -55 479 -90 l30 -12
-24 -9 c-15 -6 -61 -4 -130 5 -58 8 -164 18 -236 21 -196 10 -313 27 -354 54
-12 8 -12 12 -2 25 16 19 79 21 237 6z m-1071 -54 c19 -14 19 -15 1 -34 -28
-32 -94 -59 -178 -72 -99 -16 -440 -9 -483 10 l-30 13 45 8 c25 4 133 15 240
23 190 16 320 37 350 56 21 13 33 12 55 -4z m915 -16 c36 -10 157 -25 270 -34
113 -10 225 -21 250 -25 l45 -8 -30 -13 c-43 -19 -384 -26 -483 -10 -84 13
-150 40 -178 72 -18 19 -18 20 1 34 12 9 28 12 40 8 11 -3 49 -14 85 -24z
m-877 -58 c-44 -36 -137 -81 -206 -99 -78 -20 -225 -12 -312 16 l-60 19 145 1
c215 2 353 33 405 91 14 16 20 17 36 7 19 -12 19 -13 -8 -35z m817 -20 c62
-26 181 -41 330 -43 l145 -1 -60 -21 c-48 -16 -86 -20 -185 -21 -142 0 -188
13 -300 85 -57 37 -61 41 -44 54 16 11 22 10 49 -13 16 -14 46 -32 65 -40z
m-670 -15 c30 -11 57 -22 59 -23 1 -2 -11 -20 -28 -41 -16 -21 -44 -69 -61
-107 -66 -144 -263 -277 -469 -314 l-54 -10 6 62 c8 83 47 185 101 260 39 55
49 63 95 75 54 13 185 75 236 110 17 12 37 18 45 15 8 -4 40 -16 70 -27z m535
12 c51 -35 183 -97 236 -110 46 -12 56 -20 95 -75 54 -75 93 -177 101 -260 l6
-62 -54 10 c-208 38 -403 168 -469 314 -17 38 -45 86 -61 107 -17 21 -29 40
-28 41 2 2 27 11 54 20 28 9 57 21 65 26 20 13 21 13 55 -11z m-425 -43 c0 -2
-9 -24 -20 -50 -43 -96 -62 -283 -41 -408 4 -27 6 -48 5 -48 -12 0 -54 106
-64 157 -17 97 13 215 83 320 19 28 37 42 37 29z m47 -20 c-3 -6 -11 -38 -18
-71 -16 -70 -17 -395 -2 -492 5 -35 9 -63 8 -63 -1 0 -14 18 -28 39 -54 82
-74 331 -38 474 25 97 46 138 67 130 8 -3 13 -11 11 -17z m175 -76 c45 -142
30 -425 -28 -509 l-25 -36 8 95 c13 153 8 396 -10 470 -12 49 -13 67 -4 72 17
11 34 -17 59 -92z m5 83 c32 -42 76 -141 89 -205 12 -55 12 -82 4 -131 -10
-51 -52 -157 -64 -157 -1 0 1 21 5 48 21 125 2 312 -41 408 -11 26 -20 48 -20
50 0 10 14 2 27 -13z m-137 -355 c0 -418 -14 -450 -51 -119 -21 188 1 481 37
481 12 0 14 -56 14 -362z m60 310 c18 -79 24 -323 11 -435 -16 -130 -32 -216
-42 -227 -5 -6 -9 148 -9 352 0 306 2 362 14 362 9 0 19 -20 26 -52z"/>
</g>
</svg>
